# Created By Sean Bradley for my Three.js and TypeScript Tutorials at https://sbcode.net/threejs/
mtllib jewel.mtl
o Cylinder
v -0.000000 -0.785118 -0.000000
v -0.000000 -0.033233 -0.713748
v -0.000000 -0.748281 -0.051836
v -0.000000 -0.534894 -0.238114
v 0.036654 -0.748281 -0.036654
v 0.168372 -0.534894 -0.168372
v 0.051836 -0.748281 0.000000
v 0.238114 -0.534894 0.000000
v 0.036654 -0.748281 0.036654
v 0.168372 -0.534894 0.168372
v -0.000000 -0.748281 0.051836
v -0.000000 -0.534894 0.238114
v -0.036654 -0.748281 0.036654
v -0.168372 -0.534894 0.168372
v -0.051836 -0.748281 0.000000
v -0.238114 -0.534894 -0.000000
v -0.036654 -0.748281 -0.036654
v -0.168372 -0.534894 -0.168372
v -0.000000 -0.286569 -0.457064
v -0.000000 0.335570 -0.642547
v 0.323193 -0.286569 -0.323193
v 0.457064 -0.286569 0.000000
v 0.323193 -0.286569 0.323193
v -0.000000 -0.286569 0.457064
v -0.323193 -0.286569 0.323193
v -0.457064 -0.286569 -0.000000
v -0.323193 -0.286569 -0.323193
v 0.504696 -0.033233 -0.504696
v 0.713748 -0.033233 0.000000
v 0.504696 -0.033233 0.504696
v -0.000000 -0.033233 0.713748
v -0.504696 -0.033233 0.504696
v -0.713748 -0.033233 -0.000000
v -0.504696 -0.033233 -0.504696
v -0.000000 0.423459 0.000000
v 0.454349 0.335570 -0.454349
v 0.642547 0.335570 0.000000
v 0.454349 0.335570 0.454349
v -0.000000 0.335570 0.642547
v -0.454349 0.335570 0.454349
v -0.642547 0.335570 -0.000000
v -0.454349 0.335570 -0.454349
v 0.002802 -0.785077 -0.002802
v -0.000000 -0.785077 -0.003963
v 0.020066 -0.748281 -0.048443
v -0.247336 -0.410212 0.247335
v -0.000000 -0.410212 0.349785
v 0.091017 -0.534894 -0.219735
v -0.000000 -0.656911 -0.138468
v 0.097912 -0.656911 -0.097912
v 0.003963 -0.785077 -0.000000
v 0.048443 -0.748281 -0.020066
v -0.247335 -0.410212 -0.247335
v 0.219735 -0.534894 -0.091017
v 0.138468 -0.656911 0.000000
v 0.002802 -0.785077 0.002802
v 0.048443 -0.748281 0.020066
v -0.349785 -0.410212 -0.000000
v 0.219735 -0.534894 0.091017
v 0.097912 -0.656911 0.097912
v -0.000000 -0.785077 0.003963
v 0.020066 -0.748281 0.048443
v 0.247335 -0.410212 0.247335
v 0.091017 -0.534894 0.219735
v -0.000000 -0.656911 0.138468
v -0.002802 -0.785077 0.002802
v -0.020066 -0.748281 0.048443
v 0.349785 -0.410212 0.000000
v -0.091017 -0.534894 0.219735
v -0.097912 -0.656911 0.097912
v -0.003963 -0.785077 -0.000000
v -0.048443 -0.748281 0.020066
v 0.247335 -0.410212 -0.247335
v -0.219735 -0.534894 0.091017
v -0.138468 -0.656911 -0.000000
v -0.002802 -0.785077 -0.002802
v -0.048443 -0.748281 -0.020066
v -0.000000 -0.410212 -0.349785
v -0.219735 -0.534894 -0.091017
v -0.097912 -0.656911 -0.097912
v -0.020066 -0.748281 -0.048443
v -0.091017 -0.534894 -0.219735
v 0.400132 -0.161636 -0.400132
v -0.000000 -0.161636 -0.565872
v 0.174709 -0.286569 -0.421786
v 0.565872 -0.161636 0.000000
v 0.421786 -0.286569 -0.174709
v 0.400132 -0.161636 0.400132
v 0.421786 -0.286569 0.174709
v -0.000000 -0.161636 0.565872
v 0.174709 -0.286569 0.421786
v -0.400132 -0.161636 0.400132
v -0.174709 -0.286569 0.421786
v -0.400132 -0.161636 -0.400132
v -0.421786 -0.286569 0.174709
v -0.565872 -0.161636 -0.000000
v -0.421786 -0.286569 -0.174709
v -0.174709 -0.286569 -0.421786
v -0.000000 0.149711 0.887521
v -0.627572 0.149711 0.627572
v 0.272825 -0.033233 -0.658658
v -0.887521 0.149711 -0.000000
v 0.658657 -0.033233 -0.272825
v 0.627572 0.149711 -0.627572
v 0.658658 -0.033233 0.272825
v -0.000000 0.149711 -0.887521
v 0.272825 -0.033233 0.658657
v -0.627572 0.149711 -0.627572
v -0.272825 -0.033233 0.658657
v 0.627572 0.149711 0.627572
v -0.658658 -0.033233 0.272825
v 0.887521 0.149711 0.000000
v -0.658658 -0.033233 -0.272825
v -0.272825 -0.033233 -0.658657
v 0.000000 0.412472 -0.520561
v 0.368092 0.412473 -0.368092
v 0.248729 0.335570 -0.600485
v 0.520561 0.412473 0.000000
v 0.600485 0.335570 -0.248729
v 0.368092 0.412473 0.368092
v 0.600485 0.335570 0.248729
v -0.000000 0.412473 0.520561
v 0.248729 0.335570 0.600485
v -0.368092 0.412473 0.368092
v -0.248729 0.335570 0.600485
v -0.520561 0.412473 -0.000000
v -0.600485 0.335570 0.248729
v -0.368092 0.412473 -0.368092
v -0.600485 0.335570 -0.248729
v -0.248729 0.335570 -0.600485
v 0.001750 -0.785056 -0.004224
v -0.322787 -0.410212 0.133703
v 0.053003 -0.656911 -0.127959
v 0.004224 -0.785056 -0.001750
v 0.322787 -0.410212 -0.133703
v 0.127959 -0.656911 -0.053003
v 0.004224 -0.785056 0.001750
v -0.133703 -0.410212 0.322787
v 0.127959 -0.656911 0.053003
v 0.001750 -0.785056 0.004224
v -0.133703 -0.410212 -0.322787
v 0.053003 -0.656911 0.127959
v -0.001750 -0.785056 0.004224
v 0.133703 -0.410212 0.322787
v -0.053003 -0.656911 0.127959
v -0.004224 -0.785056 0.001750
v -0.322787 -0.410212 -0.133703
v -0.127960 -0.656911 0.053003
v -0.004224 -0.785056 -0.001750
v 0.322787 -0.410212 0.133703
v -0.127960 -0.656911 -0.053003
v -0.001750 -0.785056 -0.004224
v 0.133703 -0.410212 -0.322787
v -0.053003 -0.656911 -0.127959
v 0.216300 -0.161636 -0.522195
v 0.522195 -0.161636 -0.216300
v -0.216300 -0.161636 -0.522195
v 0.522195 -0.161636 0.216300
v 0.216300 -0.161636 0.522195
v -0.216300 -0.161636 0.522195
v -0.522195 -0.161636 0.216300
v -0.522195 -0.161636 -0.216300
v 0.339724 0.149711 0.820167
v -0.339724 0.149711 0.820167
v -0.820167 0.149711 0.339724
v -0.820167 0.149711 -0.339724
v 0.339724 0.149711 -0.820167
v 0.820167 0.149711 -0.339724
v -0.339724 0.149711 -0.820167
v 0.820167 0.149711 0.339724
v 0.229813 0.406979 -0.554818
v 0.554818 0.406979 -0.229813
v 0.554818 0.406979 0.229813
v 0.229813 0.406979 0.554818
v -0.229813 0.406979 0.554818
v -0.554818 0.406979 0.229813
v -0.554818 0.406979 -0.229813
v -0.229813 0.406979 -0.554818
vn 0.0052 -0.9999 -0.0125
vn 0.0885 -0.7867 -0.6109
vn 0.3694 -0.7867 -0.4945
vn -0.7366 -0.6598 0.1487
vn -0.6260 -0.6597 0.4157
vn -0.6346 -0.6479 0.4214
vn -0.7467 -0.6479 0.1508
vn 0.1371 -0.6798 -0.7205
vn 0.1536 -0.6246 -0.7657
vn 0.4328 -0.6246 -0.6501
vn 0.4125 -0.6798 -0.6064
vn 0.0124 -0.9999 -0.0051
vn 0.4945 -0.7867 -0.3694
vn 0.6109 -0.7867 -0.0885
vn 0.7366 -0.6597 -0.1487
vn 0.6260 -0.6598 -0.4157
vn 0.6346 -0.6479 -0.4214
vn 0.7467 -0.6479 -0.1508
vn 0.6064 -0.6798 -0.4125
vn 0.6501 -0.6246 -0.4328
vn 0.7657 -0.6246 -0.1536
vn 0.7205 -0.6798 -0.1371
vn 0.0124 -0.9999 0.0051
vn 0.6109 -0.7867 0.0885
vn 0.4945 -0.7867 0.3694
vn -0.4157 -0.6597 0.6260
vn -0.1487 -0.6598 0.7366
vn -0.1508 -0.6479 0.7467
vn -0.4214 -0.6479 0.6346
vn 0.7205 -0.6798 0.1371
vn 0.7657 -0.6246 0.1536
vn 0.6501 -0.6246 0.4328
vn 0.6064 -0.6798 0.4125
vn 0.0052 -0.9999 0.0125
vn 0.3694 -0.7867 0.4945
vn 0.0885 -0.7867 0.6109
vn -0.1487 -0.6598 -0.7366
vn -0.4157 -0.6597 -0.6260
vn -0.4214 -0.6479 -0.6346
vn -0.1508 -0.6479 -0.7467
vn 0.4125 -0.6798 0.6064
vn 0.4328 -0.6246 0.6501
vn 0.1536 -0.6246 0.7657
vn 0.1371 -0.6798 0.7205
vn -0.0052 -0.9999 0.0124
vn -0.0885 -0.7867 0.6109
vn -0.3694 -0.7867 0.4945
vn 0.1487 -0.6597 0.7366
vn 0.4157 -0.6597 0.6260
vn 0.4214 -0.6479 0.6346
vn 0.1508 -0.6479 0.7467
vn -0.1371 -0.6798 0.7205
vn -0.1536 -0.6246 0.7657
vn -0.4328 -0.6246 0.6501
vn -0.4125 -0.6798 0.6064
vn -0.0124 -0.9999 0.0052
vn -0.4945 -0.7867 0.3694
vn -0.6109 -0.7867 0.0885
vn -0.6260 -0.6597 -0.4157
vn -0.7366 -0.6597 -0.1487
vn -0.7467 -0.6479 -0.1508
vn -0.6346 -0.6479 -0.4214
vn -0.6064 -0.6798 0.4125
vn -0.6501 -0.6246 0.4328
vn -0.7657 -0.6246 0.1536
vn -0.7205 -0.6798 0.1371
vn -0.0124 -0.9999 -0.0052
vn -0.6109 -0.7867 -0.0885
vn -0.4945 -0.7867 -0.3694
vn 0.6260 -0.6598 0.4157
vn 0.7366 -0.6597 0.1487
vn 0.7467 -0.6479 0.1508
vn 0.6346 -0.6479 0.4214
vn -0.7205 -0.6798 -0.1371
vn -0.7657 -0.6246 -0.1536
vn -0.6501 -0.6246 -0.4328
vn -0.6064 -0.6798 -0.4125
vn -0.0052 -0.9999 -0.0124
vn -0.3694 -0.7867 -0.4945
vn -0.0885 -0.7867 -0.6109
vn 0.4157 -0.6597 -0.6260
vn 0.1487 -0.6597 -0.7366
vn 0.1508 -0.6479 -0.7467
vn 0.4214 -0.6479 -0.6346
vn -0.4125 -0.6798 -0.6064
vn -0.4328 -0.6246 -0.6501
vn -0.1536 -0.6246 -0.7657
vn -0.1371 -0.6798 -0.7205
vn 0.4207 -0.6493 -0.6336
vn 0.1505 -0.6493 -0.7455
vn 0.1312 -0.7485 -0.6500
vn 0.3668 -0.7485 -0.5524
vn 0.7455 -0.6493 -0.1505
vn 0.6336 -0.6493 -0.4207
vn 0.5524 -0.7485 -0.3668
vn 0.6500 -0.7485 -0.1312
vn -0.1505 -0.6493 -0.7455
vn -0.4207 -0.6493 -0.6336
vn -0.3668 -0.7485 -0.5524
vn -0.1312 -0.7485 -0.6500
vn 0.6336 -0.6493 0.4207
vn 0.7455 -0.6493 0.1505
vn 0.6500 -0.7485 0.1312
vn 0.5524 -0.7485 0.3668
vn 0.1505 -0.6493 0.7455
vn 0.4207 -0.6493 0.6336
vn 0.3668 -0.7485 0.5524
vn 0.1312 -0.7485 0.6500
vn -0.4207 -0.6493 0.6336
vn -0.1505 -0.6493 0.7455
vn -0.1312 -0.7485 0.6500
vn -0.3668 -0.7485 0.5524
vn -0.7455 -0.6493 0.1505
vn -0.6336 -0.6493 0.4207
vn -0.5524 -0.7485 0.3668
vn -0.6500 -0.7485 0.1312
vn -0.6336 -0.6493 -0.4207
vn -0.7455 -0.6493 -0.1505
vn -0.6500 -0.7485 -0.1312
vn -0.5524 -0.7485 -0.3668
vn 0.1432 -0.6827 0.7165
vn 0.4054 -0.6827 0.6079
vn 0.3495 0.7865 0.5091
vn 0.1129 0.7865 0.6071
vn -0.4054 -0.6827 0.6079
vn -0.1432 -0.6827 0.7165
vn -0.1129 0.7865 0.6071
vn -0.3495 0.7865 0.5091
vn -0.7165 -0.6827 0.1432
vn -0.6079 -0.6827 0.4054
vn -0.5091 0.7865 0.3495
vn -0.6071 0.7865 0.1129
vn -0.6079 -0.6827 -0.4054
vn -0.7165 -0.6827 -0.1432
vn -0.6071 0.7865 -0.1129
vn -0.5091 0.7865 -0.3495
vn 0.4054 -0.6827 -0.6079
vn 0.1432 -0.6827 -0.7165
vn 0.1129 0.7865 -0.6071
vn 0.3495 0.7865 -0.5091
vn 0.7165 -0.6827 -0.1432
vn 0.6079 -0.6827 -0.4054
vn 0.5091 0.7865 -0.3495
vn 0.6071 0.7865 -0.1129
vn -0.1432 -0.6827 -0.7165
vn -0.4054 -0.6827 -0.6079
vn -0.3495 0.7865 -0.5091
vn -0.1129 0.7865 -0.6071
vn 0.6079 -0.6827 0.4054
vn 0.7165 -0.6827 0.1432
vn 0.6071 0.7865 0.1129
vn 0.5091 0.7865 0.3495
vn 0.0105 0.9996 -0.0253
vn 0.4538 0.7499 -0.4813
vn 0.0194 0.7499 -0.6612
vn 0.0253 0.9996 -0.0105
vn 0.6612 0.7499 -0.0194
vn 0.4813 0.7499 -0.4538
vn 0.0253 0.9996 0.0105
vn 0.4813 0.7499 0.4538
vn 0.6612 0.7499 0.0194
vn 0.0105 0.9996 0.0253
vn 0.0194 0.7499 0.6612
vn 0.4538 0.7499 0.4813
vn -0.0105 0.9996 0.0253
vn -0.4538 0.7499 0.4813
vn -0.0194 0.7499 0.6612
vn -0.0253 0.9996 0.0105
vn -0.6612 0.7499 0.0194
vn -0.4813 0.7499 0.4538
vn -0.0253 0.9996 -0.0105
vn -0.4813 0.7499 -0.4538
vn -0.6612 0.7499 -0.0194
vn -0.0105 0.9996 -0.0253
vn -0.0194 0.7499 -0.6612
vn -0.4538 0.7499 -0.4813
usemtl None
s off
f 1//1 44//1 131//1 43//1
f 3//2 45//2 131//2 44//2
f 5//3 43//3 131//3 45//3
f 16//4 74//4 132//4 58//4
f 74//5 14//5 46//5 132//5
f 132//6 46//6 25//6 95//6
f 58//7 132//7 95//7 26//7
f 3//8 49//8 133//8 45//8
f 49//9 4//9 48//9 133//9
f 133//10 48//10 6//10 50//10
f 45//11 133//11 50//11 5//11
f 1//12 43//12 134//12 51//12
f 5//13 52//13 134//13 43//13
f 7//14 51//14 134//14 52//14
f 8//15 54//15 135//15 68//15
f 54//16 6//16 73//16 135//16
f 135//17 73//17 21//17 87//17
f 68//18 135//18 87//18 22//18
f 5//19 50//19 136//19 52//19
f 50//20 6//20 54//20 136//20
f 136//21 54//21 8//21 55//21
f 52//22 136//22 55//22 7//22
f 1//23 51//23 137//23 56//23
f 7//24 57//24 137//24 51//24
f 9//25 56//25 137//25 57//25
f 14//26 69//26 138//26 46//26
f 69//27 12//27 47//27 138//27
f 138//28 47//28 24//28 93//28
f 46//29 138//29 93//29 25//29
f 7//30 55//30 139//30 57//30
f 55//31 8//31 59//31 139//31
f 139//32 59//32 10//32 60//32
f 57//33 139//33 60//33 9//33
f 1//34 56//34 140//34 61//34
f 9//35 62//35 140//35 56//35
f 11//36 61//36 140//36 62//36
f 4//37 82//37 141//37 78//37
f 82//38 18//38 53//38 141//38
f 141//39 53//39 27//39 98//39
f 78//40 141//40 98//40 19//40
f 9//41 60//41 142//41 62//41
f 60//42 10//42 64//42 142//42
f 142//43 64//43 12//43 65//43
f 62//44 142//44 65//44 11//44
f 1//45 61//45 143//45 66//45
f 11//46 67//46 143//46 61//46
f 13//47 66//47 143//47 67//47
f 12//48 64//48 144//48 47//48
f 64//49 10//49 63//49 144//49
f 144//50 63//50 23//50 91//50
f 47//51 144//51 91//51 24//51
f 11//52 65//52 145//52 67//52
f 65//53 12//53 69//53 145//53
f 145//54 69//54 14//54 70//54
f 67//55 145//55 70//55 13//55
f 1//56 66//56 146//56 71//56
f 13//57 72//57 146//57 66//57
f 15//58 71//58 146//58 72//58
f 18//59 79//59 147//59 53//59
f 79//60 16//60 58//60 147//60
f 147//61 58//61 26//61 97//61
f 53//62 147//62 97//62 27//62
f 13//63 70//63 148//63 72//63
f 70//64 14//64 74//64 148//64
f 148//65 74//65 16//65 75//65
f 72//66 148//66 75//66 15//66
f 1//67 71//67 149//67 76//67
f 15//68 77//68 149//68 71//68
f 17//69 76//69 149//69 77//69
f 10//70 59//70 150//70 63//70
f 59//71 8//71 68//71 150//71
f 150//72 68//72 22//72 89//72
f 63//73 150//73 89//73 23//73
f 15//74 75//74 151//74 77//74
f 75//75 16//75 79//75 151//75
f 151//76 79//76 18//76 80//76
f 77//77 151//77 80//77 17//77
f 1//78 76//78 152//78 44//78
f 17//79 81//79 152//79 76//79
f 3//80 44//80 152//80 81//80
f 6//81 48//81 153//81 73//81
f 48//82 4//82 78//82 153//82
f 153//83 78//83 19//83 85//83
f 73//84 153//84 85//84 21//84
f 17//85 80//85 154//85 81//85
f 80//86 18//86 82//86 154//86
f 154//87 82//87 4//87 49//87
f 81//88 154//88 49//88 3//88
f 21//89 85//89 155//89 83//89
f 85//90 19//90 84//90 155//90
f 155//91 84//91 2//91 101//91
f 83//92 155//92 101//92 28//92
f 22//93 87//93 156//93 86//93
f 87//94 21//94 83//94 156//94
f 156//95 83//95 28//95 103//95
f 86//96 156//96 103//96 29//96
f 19//97 98//97 157//97 84//97
f 98//98 27//98 94//98 157//98
f 157//99 94//99 34//99 114//99
f 84//100 157//100 114//100 2//100
f 23//101 89//101 158//101 88//101
f 89//102 22//102 86//102 158//102
f 158//103 86//103 29//103 105//103
f 88//104 158//104 105//104 30//104
f 24//105 91//105 159//105 90//105
f 91//106 23//106 88//106 159//106
f 159//107 88//107 30//107 107//107
f 90//108 159//108 107//108 31//108
f 25//109 93//109 160//109 92//109
f 93//110 24//110 90//110 160//110
f 160//111 90//111 31//111 109//111
f 92//112 160//112 109//112 32//112
f 26//113 95//113 161//113 96//113
f 95//114 25//114 92//114 161//114
f 161//115 92//115 32//115 111//115
f 96//116 161//116 111//116 33//116
f 27//117 97//117 162//117 94//117
f 97//118 26//118 96//118 162//118
f 162//119 96//119 33//119 113//119
f 94//120 162//120 113//120 34//120
f 31//121 107//121 163//121 99//121
f 107//122 30//122 110//122 163//122
f 163//123 110//123 38//123 123//123
f 99//124 163//124 123//124 39//124
f 32//125 109//125 164//125 100//125
f 109//126 31//126 99//126 164//126
f 164//127 99//127 39//127 125//127
f 100//128 164//128 125//128 40//128
f 33//129 111//129 165//129 102//129
f 111//130 32//130 100//130 165//130
f 165//131 100//131 40//131 127//131
f 102//132 165//132 127//132 41//132
f 34//133 113//133 166//133 108//133
f 113//134 33//134 102//134 166//134
f 166//135 102//135 41//135 129//135
f 108//136 166//136 129//136 42//136
f 28//137 101//137 167//137 104//137
f 101//138 2//138 106//138 167//138
f 167//139 106//139 20//139 117//139
f 104//140 167//140 117//140 36//140
f 29//141 103//141 168//141 112//141
f 103//142 28//142 104//142 168//142
f 168//143 104//143 36//143 119//143
f 112//144 168//144 119//144 37//144
f 2//145 114//145 169//145 106//145
f 114//146 34//146 108//146 169//146
f 169//147 108//147 42//147 130//147
f 106//148 169//148 130//148 20//148
f 30//149 105//149 170//149 110//149
f 105//150 29//150 112//150 170//150
f 170//151 112//151 37//151 121//151
f 110//152 170//152 121//152 38//152
f 35//153 116//153 171//153 115//153
f 36//154 117//154 171//154 116//154
f 20//155 115//155 171//155 117//155
f 35//156 118//156 172//156 116//156
f 37//157 119//157 172//157 118//157
f 36//158 116//158 172//158 119//158
f 35//159 120//159 173//159 118//159
f 38//160 121//160 173//160 120//160
f 37//161 118//161 173//161 121//161
f 35//162 122//162 174//162 120//162
f 39//163 123//163 174//163 122//163
f 38//164 120//164 174//164 123//164
f 35//165 124//165 175//165 122//165
f 40//166 125//166 175//166 124//166
f 39//167 122//167 175//167 125//167
f 35//168 126//168 176//168 124//168
f 41//169 127//169 176//169 126//169
f 40//170 124//170 176//170 127//170
f 35//171 128//171 177//171 126//171
f 42//172 129//172 177//172 128//172
f 41//173 126//173 177//173 129//173
f 35//174 115//174 178//174 128//174
f 20//175 130//175 178//175 115//175
f 42//176 128//176 178//176 130//176
